# xmcd
#
# Track frame offsets:
# 150
# 15596
# 26890
# 44993
# 61804
# 75733
# 94488
# 105365
# 116256
# 129008
# 142397
# 152198
# 171047
# 182533
# 196031
# 207921
# 221284
# 234449
#
# Disc length: 3310 seconds
#
#
# Revision: 0
# Processed by: cddbd v1.5PL3 Copyright (c) Steve Scherf et al.
# Submitted via: FreeRIP 2.53 
#
DISCID=f10cec12
DTITLE=Watson, Gene - Eighteen Greatest Hits
DYEAR=1900
DGENRE=
TTITLE0=Love In The Hot Afternoon
TTITLE1=Should I Come Home Or Should I Go Crazy
TTITLE2=Paper Roses
TTITLE3=Nothing Sure Looked Good On You
TTITLE4=Where Love Begins
TTITLE5=Farewell Party
TTITLE6=Pick The Wildwood Flower
TTITLE7=Her Body Couldn't Keep You (Off My Mind)
TTITLE8=I Don't Need A Thing At All
TTITLE9=One Sided Conversation
TTITLE10=Because You Believed In Me
TTITLE11=The Old Man And His Horn
TTITLE12=Cowboys Don't Get Lucky All The Time
TTITLE13=No One Will Ever Know
TTITLE14=Raisin' Cane In Texas
TTITLE15=Bedroom Ballad
TTITLE16=You Could Know As Much About A Stranger
TTITLE17=Bad Water
EXTD=
EXTT0=
EXTT1=
EXTT2=
EXTT3=
EXTT4=
EXTT5=
EXTT6=
EXTT7=
EXTT8=
EXTT9=
EXTT10=
EXTT11=
EXTT12=
EXTT13=
EXTT14=
EXTT15=
EXTT16=
EXTT17=
PLAYORDER=
